<svg width="128" height="128" viewBox="0 0 128 128" fill="none" xmlns="http://www.w3.org/2000/svg">
  <!-- Background circle with gradient -->
  <defs>
    <linearGradient id="bgGradient" x1="0%" y1="0%" x2="100%" y2="100%">
      <stop offset="0%" style="stop-color:#667eea;stop-opacity:1" />
      <stop offset="100%" style="stop-color:#764ba2;stop-opacity:1" />
    </linearGradient>
    <linearGradient id="iconGradient" x1="0%" y1="0%" x2="100%" y2="100%">
      <stop offset="0%" style="stop-color:#ffffff;stop-opacity:1" />
      <stop offset="100%" style="stop-color:#f8f9ff;stop-opacity:1" />
    </linearGradient>
    <filter id="shadow" x="-20%" y="-20%" width="140%" height="140%">
      <feDropShadow dx="2" dy="4" stdDeviation="4" flood-color="#000000" flood-opacity="0.3"/>
    </filter>
  </defs>
  
  <!-- Main background -->
  <circle cx="64" cy="64" r="60" fill="url(#bgGradient)" filter="url(#shadow)"/>
  
  <!-- Camera body -->
  <rect x="32" y="40" width="64" height="48" rx="8" ry="8" fill="url(#iconGradient)" stroke="#667eea" stroke-width="2"/>
  
  <!-- Camera lens -->
  <circle cx="64" cy="64" r="16" fill="#667eea" stroke="#ffffff" stroke-width="2"/>
  <circle cx="64" cy="64" r="10" fill="#4c63d2"/>
  <circle cx="64" cy="64" r="6" fill="#3b4db8"/>
  
  <!-- Camera flash -->
  <rect x="76" y="44" width="8" height="6" rx="2" ry="2" fill="#ffd700"/>
  
  <!-- Viewfinder -->
  <rect x="84" y="46" width="6" height="4" rx="1" ry="1" fill="#333333"/>
  
  <!-- Target crosshairs overlay -->
  <g stroke="#ffffff" stroke-width="2" fill="none" opacity="0.8">
    <!-- Corner brackets -->
    <path d="M 20 20 L 20 32 M 20 20 L 32 20"/>
    <path d="M 108 20 L 96 20 M 108 20 L 108 32"/>
    <path d="M 108 108 L 108 96 M 108 108 L 96 108"/>
    <path d="M 20 108 L 32 108 M 20 108 L 20 96"/>
  </g>
  
  <!-- Center crosshair -->
  <g stroke="#ffffff" stroke-width="1.5" fill="none" opacity="0.6">
    <line x1="64" y1="20" x2="64" y2="28"/>
    <line x1="64" y1="100" x2="64" y2="108"/>
    <line x1="20" y1="64" x2="28" y2="64"/>
    <line x1="100" y1="64" x2="108" y2="64"/>
  </g>
  
  <!-- AI indicator dots -->
  <circle cx="48" cy="32" r="2" fill="#00ff88" opacity="0.8">
    <animate attributeName="opacity" values="0.8;0.3;0.8" dur="2s" repeatCount="indefinite"/>
  </circle>
  <circle cx="56" cy="28" r="1.5" fill="#00ff88" opacity="0.6">
    <animate attributeName="opacity" values="0.6;0.2;0.6" dur="2.5s" repeatCount="indefinite"/>
  </circle>
  <circle cx="64" cy="26" r="1" fill="#00ff88" opacity="0.4">
    <animate attributeName="opacity" values="0.4;0.1;0.4" dur="3s" repeatCount="indefinite"/>
  </circle>
</svg>