<svg xmlns="http://www.w3.org/2000/svg" viewBox="0 0 128 128" width="128" height="128">
  <defs>
    <!-- Windows 10 风格渐变 -->
    <linearGradient id="win10Gradient" x1="0%" y1="0%" x2="100%" y2="100%">
      <stop offset="0%" style="stop-color:#0078d4;stop-opacity:1" />
      <stop offset="100%" style="stop-color:#106ebe;stop-opacity:1" />
    </linearGradient>
    <!-- 白色渐变 -->
    <linearGradient id="whiteGradient" x1="0%" y1="0%" x2="100%" y2="100%">
      <stop offset="0%" style="stop-color:#ffffff;stop-opacity:1" />
      <stop offset="100%" style="stop-color:#f3f2f1;stop-opacity:1" />
    </linearGradient>
    <!-- 轻微阴影 -->
    <filter id="subtleShadow" x="-10%" y="-10%" width="120%" height="120%">
      <feDropShadow dx="1" dy="2" stdDeviation="2" flood-color="#000000" flood-opacity="0.15"/>
    </filter>
  </defs>
  
  <!-- 主背景 - Windows 10 风格圆角矩形 -->
  <rect x="8" y="8" width="112" height="112" rx="16" ry="16" fill="url(#win10Gradient)" filter="url(#subtleShadow)"/>
  
  <!-- 反馈图标主体 - 简洁的对话框 -->
  <rect x="24" y="32" width="80" height="48" rx="8" ry="8" fill="url(#whiteGradient)" stroke="none"/>
  
  <!-- 对话框尾巴 -->
  <path d="M 40 80 L 48 88 L 56 80 Z" fill="url(#whiteGradient)"/>
  
  <!-- 反馈点 - Windows 10 风格的简洁圆点 -->
  <circle cx="44" cy="56" r="3" fill="#0078d4"/>
  <circle cx="64" cy="56" r="3" fill="#0078d4"/>
  <circle cx="84" cy="56" r="3" fill="#0078d4"/>
  
  <!-- 交互指示器 - 简洁的箭头 -->
  <g fill="#107c10">
    <!-- 输入箭头 -->
    <path d="M 108 40 L 116 48 L 108 56 L 112 56 L 112 52 L 104 52 L 104 44 L 112 44 Z"/>
    <!-- 输出箭头 -->
    <path d="M 20 72 L 12 80 L 20 88 L 16 88 L 16 84 L 24 84 L 24 76 L 16 76 Z"/>
  </g>
  
  <!-- Windows 10 风格的装饰线条 -->
  <rect x="32" y="40" width="16" height="2" rx="1" fill="#605e5c" opacity="0.6"/>
  <rect x="32" y="44" width="24" height="2" rx="1" fill="#605e5c" opacity="0.4"/>
  <rect x="32" y="68" width="20" height="2" rx="1" fill="#605e5c" opacity="0.3"/>
  
  <!-- 状态指示器 -->
  <circle cx="92" cy="40" r="4" fill="#107c10"/>
  <circle cx="88" cy="36" r="1.5" fill="#ffffff"/>
</svg>